<mxfile host="app.diagrams.net" modified="2024-02-26T15:35:11.798Z" agent="Mozilla/5.0 (Windows NT 10.0; Win64; x64) AppleWebKit/537.36 (KHTML, like Gecko) Chrome/121.0.0.0 Safari/537.36 Edg/121.0.0.0" etag="j0GkP93UXsauEQ-SPahM" version="23.1.6" type="device">
  <diagram name="Page-1" id="NpNb00ijpStDKrx1_4LT">
    <mxGraphModel dx="1002" dy="577" grid="1" gridSize="10" guides="1" tooltips="1" connect="1" arrows="1" fold="1" page="1" pageScale="1" pageWidth="850" pageHeight="1100" math="0" shadow="0">
      <root>
        <mxCell id="0" />
        <mxCell id="1" parent="0" />
        <mxCell id="mCzRl1WYqg1VtkMurcAk-11" style="edgeStyle=orthogonalEdgeStyle;rounded=0;orthogonalLoop=1;jettySize=auto;html=1;entryX=0.5;entryY=1;entryDx=0;entryDy=0;exitX=0.5;exitY=0;exitDx=0;exitDy=0;" edge="1" parent="1" source="mCzRl1WYqg1VtkMurcAk-4" target="mCzRl1WYqg1VtkMurcAk-3">
          <mxGeometry relative="1" as="geometry" />
        </mxCell>
        <mxCell id="mCzRl1WYqg1VtkMurcAk-4" value="Database file" style="rounded=0;whiteSpace=wrap;html=1;" vertex="1" parent="1">
          <mxGeometry x="635" y="410" width="120" height="60" as="geometry" />
        </mxCell>
        <mxCell id="mCzRl1WYqg1VtkMurcAk-6" value="DB Module" style="swimlane;whiteSpace=wrap;html=1;" vertex="1" parent="1">
          <mxGeometry x="610" y="140" width="170" height="250" as="geometry" />
        </mxCell>
        <mxCell id="mCzRl1WYqg1VtkMurcAk-3" value="SQLite3" style="rounded=0;whiteSpace=wrap;html=1;" vertex="1" parent="mCzRl1WYqg1VtkMurcAk-6">
          <mxGeometry x="25" y="170" width="120" height="60" as="geometry" />
        </mxCell>
        <mxCell id="mCzRl1WYqg1VtkMurcAk-46" style="edgeStyle=orthogonalEdgeStyle;rounded=0;orthogonalLoop=1;jettySize=auto;html=1;exitX=0.25;exitY=1;exitDx=0;exitDy=0;entryX=0.5;entryY=0;entryDx=0;entryDy=0;endArrow=none;endFill=0;" edge="1" parent="mCzRl1WYqg1VtkMurcAk-6" source="mCzRl1WYqg1VtkMurcAk-5" target="mCzRl1WYqg1VtkMurcAk-41">
          <mxGeometry relative="1" as="geometry" />
        </mxCell>
        <mxCell id="mCzRl1WYqg1VtkMurcAk-5" value="DB" style="rounded=0;whiteSpace=wrap;html=1;" vertex="1" parent="mCzRl1WYqg1VtkMurcAk-6">
          <mxGeometry x="25" y="45" width="120" height="60" as="geometry" />
        </mxCell>
        <mxCell id="mCzRl1WYqg1VtkMurcAk-45" style="edgeStyle=orthogonalEdgeStyle;rounded=0;orthogonalLoop=1;jettySize=auto;html=1;exitX=0.5;exitY=1;exitDx=0;exitDy=0;entryX=0.25;entryY=0;entryDx=0;entryDy=0;" edge="1" parent="mCzRl1WYqg1VtkMurcAk-6" source="mCzRl1WYqg1VtkMurcAk-41" target="mCzRl1WYqg1VtkMurcAk-3">
          <mxGeometry relative="1" as="geometry" />
        </mxCell>
        <mxCell id="mCzRl1WYqg1VtkMurcAk-41" value="Data" style="text;html=1;align=center;verticalAlign=middle;whiteSpace=wrap;rounded=0;" vertex="1" parent="mCzRl1WYqg1VtkMurcAk-6">
          <mxGeometry x="30" y="130" width="50" height="20" as="geometry" />
        </mxCell>
        <mxCell id="mCzRl1WYqg1VtkMurcAk-9" value="UI Module" style="swimlane;whiteSpace=wrap;html=1;" vertex="1" parent="1">
          <mxGeometry x="190" y="140" width="330" height="340" as="geometry" />
        </mxCell>
        <mxCell id="mCzRl1WYqg1VtkMurcAk-18" style="edgeStyle=orthogonalEdgeStyle;rounded=0;orthogonalLoop=1;jettySize=auto;html=1;exitX=0.5;exitY=1;exitDx=0;exitDy=0;entryX=0.5;entryY=0;entryDx=0;entryDy=0;" edge="1" parent="mCzRl1WYqg1VtkMurcAk-9" source="mCzRl1WYqg1VtkMurcAk-7" target="mCzRl1WYqg1VtkMurcAk-14">
          <mxGeometry relative="1" as="geometry" />
        </mxCell>
        <mxCell id="mCzRl1WYqg1VtkMurcAk-7" value="LocGraph" style="rounded=0;whiteSpace=wrap;html=1;" vertex="1" parent="mCzRl1WYqg1VtkMurcAk-9">
          <mxGeometry x="185" y="180" width="120" height="60" as="geometry" />
        </mxCell>
        <mxCell id="mCzRl1WYqg1VtkMurcAk-49" style="edgeStyle=orthogonalEdgeStyle;rounded=0;orthogonalLoop=1;jettySize=auto;html=1;exitX=0.5;exitY=1;exitDx=0;exitDy=0;entryX=0.5;entryY=0;entryDx=0;entryDy=0;endArrow=none;endFill=0;" edge="1" parent="mCzRl1WYqg1VtkMurcAk-9" source="mCzRl1WYqg1VtkMurcAk-2" target="mCzRl1WYqg1VtkMurcAk-20">
          <mxGeometry relative="1" as="geometry" />
        </mxCell>
        <mxCell id="mCzRl1WYqg1VtkMurcAk-2" value="PlotWidget" style="rounded=0;whiteSpace=wrap;html=1;" vertex="1" parent="mCzRl1WYqg1VtkMurcAk-9">
          <mxGeometry x="185" y="75" width="120" height="60" as="geometry" />
        </mxCell>
        <mxCell id="mCzRl1WYqg1VtkMurcAk-58" style="edgeStyle=orthogonalEdgeStyle;rounded=0;orthogonalLoop=1;jettySize=auto;html=1;entryX=1;entryY=0.5;entryDx=0;entryDy=0;" edge="1" parent="mCzRl1WYqg1VtkMurcAk-9" source="mCzRl1WYqg1VtkMurcAk-14" target="mCzRl1WYqg1VtkMurcAk-50">
          <mxGeometry relative="1" as="geometry" />
        </mxCell>
        <mxCell id="mCzRl1WYqg1VtkMurcAk-14" value="MatPlotLib" style="rounded=0;whiteSpace=wrap;html=1;" vertex="1" parent="mCzRl1WYqg1VtkMurcAk-9">
          <mxGeometry x="185" y="260" width="120" height="60" as="geometry" />
        </mxCell>
        <mxCell id="mCzRl1WYqg1VtkMurcAk-29" style="edgeStyle=orthogonalEdgeStyle;rounded=0;orthogonalLoop=1;jettySize=auto;html=1;exitX=0.5;exitY=1;exitDx=0;exitDy=0;entryX=0.5;entryY=0;entryDx=0;entryDy=0;" edge="1" parent="mCzRl1WYqg1VtkMurcAk-9" source="mCzRl1WYqg1VtkMurcAk-20" target="mCzRl1WYqg1VtkMurcAk-7">
          <mxGeometry relative="1" as="geometry" />
        </mxCell>
        <mxCell id="mCzRl1WYqg1VtkMurcAk-20" value="Plot commands" style="text;html=1;align=center;verticalAlign=middle;whiteSpace=wrap;rounded=0;" vertex="1" parent="mCzRl1WYqg1VtkMurcAk-9">
          <mxGeometry x="200" y="144" width="90" height="20" as="geometry" />
        </mxCell>
        <mxCell id="mCzRl1WYqg1VtkMurcAk-34" value="DB select" style="rounded=0;whiteSpace=wrap;html=1;" vertex="1" parent="mCzRl1WYqg1VtkMurcAk-9">
          <mxGeometry x="25" y="45" width="120" height="60" as="geometry" />
        </mxCell>
        <mxCell id="mCzRl1WYqg1VtkMurcAk-50" value="PyQT" style="rounded=0;whiteSpace=wrap;html=1;" vertex="1" parent="mCzRl1WYqg1VtkMurcAk-9">
          <mxGeometry x="25" y="260" width="120" height="60" as="geometry" />
        </mxCell>
        <mxCell id="mCzRl1WYqg1VtkMurcAk-52" style="edgeStyle=orthogonalEdgeStyle;rounded=0;orthogonalLoop=1;jettySize=auto;html=1;exitX=0.5;exitY=0;exitDx=0;exitDy=0;entryX=0.5;entryY=1;entryDx=0;entryDy=0;" edge="1" parent="mCzRl1WYqg1VtkMurcAk-9" source="mCzRl1WYqg1VtkMurcAk-33" target="mCzRl1WYqg1VtkMurcAk-34">
          <mxGeometry relative="1" as="geometry" />
        </mxCell>
        <mxCell id="mCzRl1WYqg1VtkMurcAk-57" style="edgeStyle=orthogonalEdgeStyle;rounded=0;orthogonalLoop=1;jettySize=auto;html=1;entryX=0;entryY=0.5;entryDx=0;entryDy=0;" edge="1" parent="mCzRl1WYqg1VtkMurcAk-9" source="mCzRl1WYqg1VtkMurcAk-33" target="mCzRl1WYqg1VtkMurcAk-2">
          <mxGeometry relative="1" as="geometry" />
        </mxCell>
        <mxCell id="mCzRl1WYqg1VtkMurcAk-33" value="MainWindow" style="rounded=0;whiteSpace=wrap;html=1;" vertex="1" parent="mCzRl1WYqg1VtkMurcAk-9">
          <mxGeometry x="25" y="135" width="120" height="60" as="geometry" />
        </mxCell>
        <mxCell id="mCzRl1WYqg1VtkMurcAk-61" style="edgeStyle=orthogonalEdgeStyle;rounded=0;orthogonalLoop=1;jettySize=auto;html=1;entryX=0;entryY=0.5;entryDx=0;entryDy=0;" edge="1" parent="1" source="mCzRl1WYqg1VtkMurcAk-10" target="mCzRl1WYqg1VtkMurcAk-33">
          <mxGeometry relative="1" as="geometry" />
        </mxCell>
        <mxCell id="mCzRl1WYqg1VtkMurcAk-10" value="User Interaction" style="rounded=0;whiteSpace=wrap;html=1;" vertex="1" parent="1">
          <mxGeometry x="50" y="275.5" width="120" height="60" as="geometry" />
        </mxCell>
        <mxCell id="mCzRl1WYqg1VtkMurcAk-22" style="edgeStyle=orthogonalEdgeStyle;rounded=0;orthogonalLoop=1;jettySize=auto;html=1;startArrow=none;startFill=0;endArrow=none;endFill=0;exitX=0;exitY=0.5;exitDx=0;exitDy=0;entryX=1;entryY=0.25;entryDx=0;entryDy=0;" edge="1" parent="1" source="mCzRl1WYqg1VtkMurcAk-23" target="mCzRl1WYqg1VtkMurcAk-2">
          <mxGeometry relative="1" as="geometry">
            <mxPoint x="525" y="230" as="targetPoint" />
            <Array as="points" />
          </mxGeometry>
        </mxCell>
        <mxCell id="mCzRl1WYqg1VtkMurcAk-62" style="edgeStyle=orthogonalEdgeStyle;rounded=0;orthogonalLoop=1;jettySize=auto;html=1;entryX=0;entryY=0.75;entryDx=0;entryDy=0;" edge="1" parent="1" source="mCzRl1WYqg1VtkMurcAk-23" target="mCzRl1WYqg1VtkMurcAk-5">
          <mxGeometry relative="1" as="geometry" />
        </mxCell>
        <mxCell id="mCzRl1WYqg1VtkMurcAk-23" value="Data request" style="text;html=1;align=center;verticalAlign=middle;whiteSpace=wrap;rounded=0;" vertex="1" parent="1">
          <mxGeometry x="550" y="215" width="50" height="30" as="geometry" />
        </mxCell>
        <mxCell id="mCzRl1WYqg1VtkMurcAk-63" style="edgeStyle=orthogonalEdgeStyle;rounded=0;orthogonalLoop=1;jettySize=auto;html=1;entryX=1;entryY=0.75;entryDx=0;entryDy=0;" edge="1" parent="1" source="mCzRl1WYqg1VtkMurcAk-16" target="mCzRl1WYqg1VtkMurcAk-2">
          <mxGeometry relative="1" as="geometry" />
        </mxCell>
        <mxCell id="mCzRl1WYqg1VtkMurcAk-16" value="Data" style="text;html=1;align=center;verticalAlign=middle;whiteSpace=wrap;rounded=0;" vertex="1" parent="1">
          <mxGeometry x="555" y="246" width="40" height="28" as="geometry" />
        </mxCell>
        <mxCell id="mCzRl1WYqg1VtkMurcAk-31" value="&lt;h1&gt;Very low effort diagram&lt;/h1&gt;&lt;div&gt;user interaction drives PlotWidget to do stuff, this could be fetching data from the db for a new race. Or displaying/filtering certain athlete data and judge calls. The main thing we use to do these are SQLite3 for fetching data and PyQT for the ui&lt;/div&gt;" style="text;html=1;spacing=5;spacingTop=-20;whiteSpace=wrap;overflow=hidden;rounded=0;movable=1;resizable=1;rotatable=1;deletable=1;editable=1;locked=0;connectable=1;" vertex="1" parent="1">
          <mxGeometry x="290" y="550" width="290" height="130" as="geometry" />
        </mxCell>
        <mxCell id="mCzRl1WYqg1VtkMurcAk-40" value="Query" style="text;html=1;align=center;verticalAlign=middle;whiteSpace=wrap;rounded=0;" vertex="1" parent="1">
          <mxGeometry x="700" y="296" width="50" height="25" as="geometry" />
        </mxCell>
        <mxCell id="mCzRl1WYqg1VtkMurcAk-47" style="edgeStyle=orthogonalEdgeStyle;rounded=0;orthogonalLoop=1;jettySize=auto;html=1;exitX=0.75;exitY=0;exitDx=0;exitDy=0;entryX=0.5;entryY=1;entryDx=0;entryDy=0;endArrow=none;endFill=0;" edge="1" parent="1" source="mCzRl1WYqg1VtkMurcAk-3" target="mCzRl1WYqg1VtkMurcAk-40">
          <mxGeometry relative="1" as="geometry" />
        </mxCell>
        <mxCell id="mCzRl1WYqg1VtkMurcAk-48" style="edgeStyle=orthogonalEdgeStyle;rounded=0;orthogonalLoop=1;jettySize=auto;html=1;exitX=0.5;exitY=0;exitDx=0;exitDy=0;entryX=0.75;entryY=1;entryDx=0;entryDy=0;" edge="1" parent="1" source="mCzRl1WYqg1VtkMurcAk-40" target="mCzRl1WYqg1VtkMurcAk-5">
          <mxGeometry relative="1" as="geometry" />
        </mxCell>
        <mxCell id="mCzRl1WYqg1VtkMurcAk-51" value="Screen" style="rounded=0;whiteSpace=wrap;html=1;" vertex="1" parent="1">
          <mxGeometry x="50" y="400" width="120" height="60" as="geometry" />
        </mxCell>
        <mxCell id="mCzRl1WYqg1VtkMurcAk-54" style="edgeStyle=orthogonalEdgeStyle;rounded=0;orthogonalLoop=1;jettySize=auto;html=1;exitX=1;exitY=0.5;exitDx=0;exitDy=0;entryX=0;entryY=0.25;entryDx=0;entryDy=0;" edge="1" parent="1" source="mCzRl1WYqg1VtkMurcAk-55" target="mCzRl1WYqg1VtkMurcAk-5">
          <mxGeometry relative="1" as="geometry">
            <Array as="points">
              <mxPoint x="505" y="200" />
              <mxPoint x="540" y="200" />
              <mxPoint x="540" y="230" />
            </Array>
          </mxGeometry>
        </mxCell>
        <mxCell id="mCzRl1WYqg1VtkMurcAk-56" value="" style="edgeStyle=orthogonalEdgeStyle;rounded=0;orthogonalLoop=1;jettySize=auto;html=1;exitX=1;exitY=0.25;exitDx=0;exitDy=0;entryX=0;entryY=0.5;entryDx=0;entryDy=0;" edge="1" parent="1" source="mCzRl1WYqg1VtkMurcAk-34" target="mCzRl1WYqg1VtkMurcAk-55">
          <mxGeometry relative="1" as="geometry">
            <mxPoint x="245" y="200" as="sourcePoint" />
            <mxPoint x="365" y="200" as="targetPoint" />
            <Array as="points" />
          </mxGeometry>
        </mxCell>
        <mxCell id="mCzRl1WYqg1VtkMurcAk-55" value="DB Selection" style="text;html=1;align=center;verticalAlign=middle;whiteSpace=wrap;rounded=0;" vertex="1" parent="1">
          <mxGeometry x="380" y="185" width="80" height="25" as="geometry" />
        </mxCell>
        <mxCell id="mCzRl1WYqg1VtkMurcAk-59" style="edgeStyle=orthogonalEdgeStyle;rounded=0;orthogonalLoop=1;jettySize=auto;html=1;" edge="1" parent="1" source="mCzRl1WYqg1VtkMurcAk-50" target="mCzRl1WYqg1VtkMurcAk-51">
          <mxGeometry relative="1" as="geometry" />
        </mxCell>
        <mxCell id="mCzRl1WYqg1VtkMurcAk-65" style="edgeStyle=orthogonalEdgeStyle;rounded=0;orthogonalLoop=1;jettySize=auto;html=1;exitX=0.125;exitY=0.99;exitDx=0;exitDy=0;exitPerimeter=0;endArrow=none;endFill=0;entryX=1;entryY=0.5;entryDx=0;entryDy=0;" edge="1" parent="1" source="mCzRl1WYqg1VtkMurcAk-5" target="mCzRl1WYqg1VtkMurcAk-16">
          <mxGeometry relative="1" as="geometry">
            <mxPoint x="620" y="266" as="targetPoint" />
            <Array as="points">
              <mxPoint x="650" y="260" />
            </Array>
          </mxGeometry>
        </mxCell>
      </root>
    </mxGraphModel>
  </diagram>
</mxfile>
